<svg xmlns="http://www.w3.org/2000/svg" viewBox="109 0 154.4 150.8" width="154" height="151"><path d="m261 34.4-4.6 0.8-3.6-2.2 2.6-6.8 1.2-6.8v-1.6l-0.8 1-1.8 3.6-7 10.8-11 6.8-10.4 1.4-2.4-2.4 1.4-3.6 8.8-9.8 2.4-3.6 0.6-1-1.4 0.6-3.6 1.4-1.2-0.6V20.6L233.6 8.8 239 0l-2.8 1.4-2.8 2.8-4 5.2-2.6 6.2-0.6 0.8-0.2-1.6-0.4-4.4-0.8 1.8-1.2 3.6-4.2 6-3 6.4-6.6 15.8-4.6 4.6-5.6 3.4-4.8 2.2-5.2 0.6-1.8-3.6 0.4-1.8 1.6-0.8 8.4-2-2.2-2-0.6-1 1.6-1.2 7-4.6 6.2-5.4-3 0.8-3.6 2-13.4 6.6 5.4-12.6 3-9.8-3.8 5.4-7.2 13.4-1.4 4-3 2-7.2 0.6 11-15.4-14.8 13.8-3.2 2.8-0.8 0.4 0.4-2 5.2-12.6-5.4 5.8-3 7.8-2.4 2.2-3.2-1.8 0.6-5 2.4-4.6 16.6-22.4-10.8 9.6-15.6 18.8-3.2 0.4-1.6-3.4 1.2-7.2 3-6.8 10.2-13.6 2.2-2.8-2.6 1.2-7.8 6.6-6.4 8.2-0.8 1.2-0.4-1.6-0.4-1.8-0.8 0.8-3.2 7.2-3.8 7-1.8 11.4 1.4 5.6 3.8 4.2-6.6-2.2-9.6-6-2.8-4.8-1.8-7 1.6-16.4-1 2.4-2.4 6.8-1.2 6.8 0.4 6.8 3 6 7.4 6.2-4.4-0.8-3.8-2.2L117 48V32.8l-1.8 6.8-0.8 7.6 2.6 7.2 4.4 5.4 6.4 3 12.8 2.2-2.2 3.2-18.6 6.4-6 1.6-4.8 3.6 0.4 4.4 3 3.2 2.6 3.6 27.2 6.4 11.4 20.4 6.6 26.4 3.2 5 2 1-0.4-3 3.2 2.6-0.2-2.2 12.2 3.2 6.6-0.2 17.8-53-32.2-15.2-4.6-6.8 3.8-7.6 7.4-0.6 7.2-1.8 26-11.8 6-4.4 6.8-2.2 8.6-1.4 8.2-2.6 17.6-5.6 3.4-2.4 0.6-0.6-1.6 0.2-0.8-0.4v0m-77.8 14.8-0.6 4.2-0.6 1.4-1.8-0.2-3.6-1.4-2.4-2.8 9-1.2v0m-43-8.6 4.4-10.4-1.8 8.4 1.8 8.4v7l-3.4-4.2-1-5.4v-3.8 0m13.2 17.2 3.2-2.2 3.8-0.6-0.8 2-3.8 0.8h-2.4v0m25.6 3-6-0.2-5.4-2-1.4-1.8 0.8-0.4 4 0.6 11 1.8-3 2v0"/></svg>